<mxfile host="app.diagrams.net" modified="2023-10-12T03:12:13.491Z" agent="Mozilla/5.0 (Windows NT 10.0; Win64; x64; rv:109.0) Gecko/20100101 Firefox/118.0" etag="13ig2wZXVQ4zht14F2pW" version="22.0.4" type="github">
  <diagram id="C5RBs43oDa-KdzZeNtuy" name="Page-1">
    <mxGraphModel dx="1395" dy="628" grid="1" gridSize="10" guides="1" tooltips="1" connect="1" arrows="1" fold="1" page="1" pageScale="1" pageWidth="1169" pageHeight="827" math="0" shadow="0">
      <root>
        <mxCell id="WIyWlLk6GJQsqaUBKTNV-0" />
        <mxCell id="WIyWlLk6GJQsqaUBKTNV-1" parent="WIyWlLk6GJQsqaUBKTNV-0" />
        <mxCell id="wxCxnNNvscAaYxMl4mgB-0" value="cornerstones" style="swimlane;horizontal=0;whiteSpace=wrap;html=1;" vertex="1" parent="WIyWlLk6GJQsqaUBKTNV-1">
          <mxGeometry x="333" y="190" width="530" height="200" as="geometry" />
        </mxCell>
        <mxCell id="wxCxnNNvscAaYxMl4mgB-6" value="db" style="swimlane;whiteSpace=wrap;html=1;" vertex="1" parent="wxCxnNNvscAaYxMl4mgB-0">
          <mxGeometry x="40" y="20" width="135" height="150" as="geometry" />
        </mxCell>
        <mxCell id="wxCxnNNvscAaYxMl4mgB-9" value="" style="endArrow=none;html=1;rounded=0;" edge="1" parent="wxCxnNNvscAaYxMl4mgB-6">
          <mxGeometry width="50" height="50" relative="1" as="geometry">
            <mxPoint y="60" as="sourcePoint" />
            <mxPoint x="130" y="60" as="targetPoint" />
          </mxGeometry>
        </mxCell>
        <mxCell id="wxCxnNNvscAaYxMl4mgB-10" value="" style="endArrow=none;html=1;rounded=0;" edge="1" parent="wxCxnNNvscAaYxMl4mgB-6">
          <mxGeometry width="50" height="50" relative="1" as="geometry">
            <mxPoint y="89.99999999999999" as="sourcePoint" />
            <mxPoint x="130" y="90" as="targetPoint" />
          </mxGeometry>
        </mxCell>
        <mxCell id="wxCxnNNvscAaYxMl4mgB-12" value="" style="endArrow=none;html=1;rounded=0;" edge="1" parent="wxCxnNNvscAaYxMl4mgB-6">
          <mxGeometry width="50" height="50" relative="1" as="geometry">
            <mxPoint y="120" as="sourcePoint" />
            <mxPoint x="130" y="120" as="targetPoint" />
          </mxGeometry>
        </mxCell>
        <mxCell id="wxCxnNNvscAaYxMl4mgB-14" value="&lt;font style=&quot;font-size: 10px;&quot;&gt;post_endpoint_setup&lt;/font&gt;" style="text;html=1;align=center;verticalAlign=middle;resizable=0;points=[];autosize=1;strokeColor=none;fillColor=none;" vertex="1" parent="wxCxnNNvscAaYxMl4mgB-6">
          <mxGeometry y="60" width="120" height="30" as="geometry" />
        </mxCell>
        <mxCell id="wxCxnNNvscAaYxMl4mgB-13" value="&lt;font style=&quot;font-size: 10px;&quot;&gt;pre_endpoint_setup&lt;/font&gt;" style="text;html=1;align=center;verticalAlign=middle;resizable=0;points=[];autosize=1;strokeColor=none;fillColor=none;" vertex="1" parent="wxCxnNNvscAaYxMl4mgB-6">
          <mxGeometry y="30" width="120" height="30" as="geometry" />
        </mxCell>
        <mxCell id="wxCxnNNvscAaYxMl4mgB-16" value="&lt;font style=&quot;font-size: 10px;&quot;&gt;post_endpoint_teardwon&lt;/font&gt;" style="text;html=1;align=center;verticalAlign=middle;resizable=0;points=[];autosize=1;strokeColor=none;fillColor=none;" vertex="1" parent="wxCxnNNvscAaYxMl4mgB-6">
          <mxGeometry x="-2.5" y="120" width="140" height="30" as="geometry" />
        </mxCell>
        <mxCell id="wxCxnNNvscAaYxMl4mgB-15" value="&lt;font style=&quot;font-size: 10px;&quot;&gt;pre_endpoint_teardwon&lt;/font&gt;" style="text;html=1;align=center;verticalAlign=middle;resizable=0;points=[];autosize=1;strokeColor=none;fillColor=none;" vertex="1" parent="wxCxnNNvscAaYxMl4mgB-6">
          <mxGeometry x="-5" y="90" width="140" height="30" as="geometry" />
        </mxCell>
        <mxCell id="wxCxnNNvscAaYxMl4mgB-99" value="" style="endArrow=classic;html=1;rounded=0;" edge="1" parent="wxCxnNNvscAaYxMl4mgB-6" target="wxCxnNNvscAaYxMl4mgB-22">
          <mxGeometry width="50" height="50" relative="1" as="geometry">
            <mxPoint x="120" y="50" as="sourcePoint" />
            <mxPoint x="170" as="targetPoint" />
          </mxGeometry>
        </mxCell>
        <mxCell id="wxCxnNNvscAaYxMl4mgB-163" value="" style="endArrow=classic;html=1;rounded=0;curved=1;entryX=-0.014;entryY=0.65;entryDx=0;entryDy=0;entryPerimeter=0;" edge="1" parent="wxCxnNNvscAaYxMl4mgB-6" target="wxCxnNNvscAaYxMl4mgB-21">
          <mxGeometry width="50" height="50" relative="1" as="geometry">
            <mxPoint x="120" y="80" as="sourcePoint" />
            <mxPoint x="170" y="30" as="targetPoint" />
          </mxGeometry>
        </mxCell>
        <mxCell id="wxCxnNNvscAaYxMl4mgB-17" value="auth" style="swimlane;whiteSpace=wrap;html=1;" vertex="1" parent="wxCxnNNvscAaYxMl4mgB-0">
          <mxGeometry x="200" y="20" width="135" height="150" as="geometry" />
        </mxCell>
        <mxCell id="wxCxnNNvscAaYxMl4mgB-18" value="" style="endArrow=none;html=1;rounded=0;" edge="1" parent="wxCxnNNvscAaYxMl4mgB-17">
          <mxGeometry width="50" height="50" relative="1" as="geometry">
            <mxPoint y="60" as="sourcePoint" />
            <mxPoint x="130" y="60" as="targetPoint" />
          </mxGeometry>
        </mxCell>
        <mxCell id="wxCxnNNvscAaYxMl4mgB-19" value="" style="endArrow=none;html=1;rounded=0;" edge="1" parent="wxCxnNNvscAaYxMl4mgB-17">
          <mxGeometry width="50" height="50" relative="1" as="geometry">
            <mxPoint y="89.99999999999999" as="sourcePoint" />
            <mxPoint x="130" y="90" as="targetPoint" />
          </mxGeometry>
        </mxCell>
        <mxCell id="wxCxnNNvscAaYxMl4mgB-20" value="" style="endArrow=none;html=1;rounded=0;" edge="1" parent="wxCxnNNvscAaYxMl4mgB-17">
          <mxGeometry width="50" height="50" relative="1" as="geometry">
            <mxPoint y="120" as="sourcePoint" />
            <mxPoint x="130" y="120" as="targetPoint" />
          </mxGeometry>
        </mxCell>
        <mxCell id="wxCxnNNvscAaYxMl4mgB-21" value="&lt;font style=&quot;font-size: 10px;&quot;&gt;post_endpoint_setup&lt;/font&gt;" style="text;html=1;align=center;verticalAlign=middle;resizable=0;points=[];autosize=1;strokeColor=none;fillColor=none;" vertex="1" parent="wxCxnNNvscAaYxMl4mgB-17">
          <mxGeometry y="60" width="120" height="30" as="geometry" />
        </mxCell>
        <mxCell id="wxCxnNNvscAaYxMl4mgB-22" value="&lt;font style=&quot;font-size: 10px;&quot;&gt;pre_endpoint_setup&lt;/font&gt;" style="text;html=1;align=center;verticalAlign=middle;resizable=0;points=[];autosize=1;strokeColor=none;fillColor=none;" vertex="1" parent="wxCxnNNvscAaYxMl4mgB-17">
          <mxGeometry y="30" width="120" height="30" as="geometry" />
        </mxCell>
        <mxCell id="wxCxnNNvscAaYxMl4mgB-23" value="&lt;font style=&quot;font-size: 10px;&quot;&gt;post_endpoint_teardwon&lt;/font&gt;" style="text;html=1;align=center;verticalAlign=middle;resizable=0;points=[];autosize=1;strokeColor=none;fillColor=none;" vertex="1" parent="wxCxnNNvscAaYxMl4mgB-17">
          <mxGeometry x="-2.5" y="120" width="140" height="30" as="geometry" />
        </mxCell>
        <mxCell id="wxCxnNNvscAaYxMl4mgB-24" value="&lt;font style=&quot;font-size: 10px;&quot;&gt;pre_endpoint_teardwon&lt;/font&gt;" style="text;html=1;align=center;verticalAlign=middle;resizable=0;points=[];autosize=1;strokeColor=none;fillColor=none;" vertex="1" parent="wxCxnNNvscAaYxMl4mgB-17">
          <mxGeometry x="-5" y="90" width="140" height="30" as="geometry" />
        </mxCell>
        <mxCell id="wxCxnNNvscAaYxMl4mgB-100" value="" style="endArrow=classic;html=1;rounded=0;" edge="1" parent="wxCxnNNvscAaYxMl4mgB-17" target="wxCxnNNvscAaYxMl4mgB-63">
          <mxGeometry width="50" height="50" relative="1" as="geometry">
            <mxPoint x="120" y="50" as="sourcePoint" />
            <mxPoint x="170" as="targetPoint" />
          </mxGeometry>
        </mxCell>
        <mxCell id="wxCxnNNvscAaYxMl4mgB-164" value="" style="endArrow=classic;html=1;rounded=0;curved=1;" edge="1" parent="wxCxnNNvscAaYxMl4mgB-17" target="wxCxnNNvscAaYxMl4mgB-62">
          <mxGeometry width="50" height="50" relative="1" as="geometry">
            <mxPoint x="120" y="80" as="sourcePoint" />
            <mxPoint x="170" y="30" as="targetPoint" />
          </mxGeometry>
        </mxCell>
        <mxCell id="wxCxnNNvscAaYxMl4mgB-58" value="other" style="swimlane;whiteSpace=wrap;html=1;" vertex="1" parent="wxCxnNNvscAaYxMl4mgB-0">
          <mxGeometry x="360" y="20" width="135" height="150" as="geometry" />
        </mxCell>
        <mxCell id="wxCxnNNvscAaYxMl4mgB-59" value="" style="endArrow=none;html=1;rounded=0;" edge="1" parent="wxCxnNNvscAaYxMl4mgB-58">
          <mxGeometry width="50" height="50" relative="1" as="geometry">
            <mxPoint y="60" as="sourcePoint" />
            <mxPoint x="130" y="60" as="targetPoint" />
          </mxGeometry>
        </mxCell>
        <mxCell id="wxCxnNNvscAaYxMl4mgB-60" value="" style="endArrow=none;html=1;rounded=0;" edge="1" parent="wxCxnNNvscAaYxMl4mgB-58">
          <mxGeometry width="50" height="50" relative="1" as="geometry">
            <mxPoint y="89.99999999999999" as="sourcePoint" />
            <mxPoint x="130" y="90" as="targetPoint" />
          </mxGeometry>
        </mxCell>
        <mxCell id="wxCxnNNvscAaYxMl4mgB-61" value="" style="endArrow=none;html=1;rounded=0;" edge="1" parent="wxCxnNNvscAaYxMl4mgB-58">
          <mxGeometry width="50" height="50" relative="1" as="geometry">
            <mxPoint y="120" as="sourcePoint" />
            <mxPoint x="130" y="120" as="targetPoint" />
          </mxGeometry>
        </mxCell>
        <mxCell id="wxCxnNNvscAaYxMl4mgB-62" value="&lt;font style=&quot;font-size: 10px;&quot;&gt;post_endpoint_setup&lt;/font&gt;" style="text;html=1;align=center;verticalAlign=middle;resizable=0;points=[];autosize=1;strokeColor=none;fillColor=none;" vertex="1" parent="wxCxnNNvscAaYxMl4mgB-58">
          <mxGeometry y="60" width="120" height="30" as="geometry" />
        </mxCell>
        <mxCell id="wxCxnNNvscAaYxMl4mgB-63" value="&lt;font style=&quot;font-size: 10px;&quot;&gt;pre_endpoint_setup&lt;/font&gt;" style="text;html=1;align=center;verticalAlign=middle;resizable=0;points=[];autosize=1;strokeColor=none;fillColor=none;" vertex="1" parent="wxCxnNNvscAaYxMl4mgB-58">
          <mxGeometry y="30" width="120" height="30" as="geometry" />
        </mxCell>
        <mxCell id="wxCxnNNvscAaYxMl4mgB-64" value="&lt;font style=&quot;font-size: 10px;&quot;&gt;post_endpoint_teardwon&lt;/font&gt;" style="text;html=1;align=center;verticalAlign=middle;resizable=0;points=[];autosize=1;strokeColor=none;fillColor=none;" vertex="1" parent="wxCxnNNvscAaYxMl4mgB-58">
          <mxGeometry x="-2.5" y="120" width="140" height="30" as="geometry" />
        </mxCell>
        <mxCell id="wxCxnNNvscAaYxMl4mgB-65" value="&lt;font style=&quot;font-size: 10px;&quot;&gt;pre_endpoint_teardwon&lt;/font&gt;" style="text;html=1;align=center;verticalAlign=middle;resizable=0;points=[];autosize=1;strokeColor=none;fillColor=none;" vertex="1" parent="wxCxnNNvscAaYxMl4mgB-58">
          <mxGeometry x="-5" y="90" width="140" height="30" as="geometry" />
        </mxCell>
        <mxCell id="wxCxnNNvscAaYxMl4mgB-108" value="" style="endArrow=classic;html=1;rounded=0;curved=1;entryX=0;entryY=0.5;entryDx=0;entryDy=0;" edge="1" parent="wxCxnNNvscAaYxMl4mgB-58" target="wxCxnNNvscAaYxMl4mgB-107">
          <mxGeometry width="50" height="50" relative="1" as="geometry">
            <mxPoint x="120" y="50" as="sourcePoint" />
            <mxPoint x="170" as="targetPoint" />
          </mxGeometry>
        </mxCell>
        <mxCell id="wxCxnNNvscAaYxMl4mgB-167" value="" style="endArrow=classic;html=1;rounded=0;curved=1;entryX=0;entryY=0.5;entryDx=0;entryDy=0;" edge="1" parent="wxCxnNNvscAaYxMl4mgB-58" target="wxCxnNNvscAaYxMl4mgB-165">
          <mxGeometry width="50" height="50" relative="1" as="geometry">
            <mxPoint x="120" y="80" as="sourcePoint" />
            <mxPoint x="170" y="30" as="targetPoint" />
          </mxGeometry>
        </mxCell>
        <mxCell id="wxCxnNNvscAaYxMl4mgB-1" value="endpoints" style="swimlane;whiteSpace=wrap;html=1;" vertex="1" parent="WIyWlLk6GJQsqaUBKTNV-1">
          <mxGeometry x="333" y="500" width="530" height="530" as="geometry">
            <mxRectangle x="230" y="340" width="100" height="30" as="alternateBounds" />
          </mxGeometry>
        </mxCell>
        <mxCell id="wxCxnNNvscAaYxMl4mgB-25" value="&lt;div&gt;hearbeat&lt;/div&gt;" style="swimlane;horizontal=0;whiteSpace=wrap;html=1;" vertex="1" parent="wxCxnNNvscAaYxMl4mgB-1">
          <mxGeometry x="8" y="45" width="502" height="200" as="geometry" />
        </mxCell>
        <mxCell id="wxCxnNNvscAaYxMl4mgB-26" value="db" style="swimlane;whiteSpace=wrap;html=1;" vertex="1" parent="wxCxnNNvscAaYxMl4mgB-25">
          <mxGeometry x="34.5" y="25" width="95.5" height="150" as="geometry" />
        </mxCell>
        <mxCell id="wxCxnNNvscAaYxMl4mgB-28" value="" style="endArrow=none;html=1;rounded=0;" edge="1" parent="wxCxnNNvscAaYxMl4mgB-26">
          <mxGeometry width="50" height="50" relative="1" as="geometry">
            <mxPoint y="89.99999999999999" as="sourcePoint" />
            <mxPoint x="97.5" y="90" as="targetPoint" />
          </mxGeometry>
        </mxCell>
        <mxCell id="wxCxnNNvscAaYxMl4mgB-31" value="&lt;font style=&quot;font-size: 10px;&quot;&gt;setup&lt;/font&gt;" style="text;html=1;align=center;verticalAlign=middle;resizable=0;points=[];autosize=1;strokeColor=none;fillColor=none;" vertex="1" parent="wxCxnNNvscAaYxMl4mgB-26">
          <mxGeometry x="22.75" y="40" width="50" height="30" as="geometry" />
        </mxCell>
        <mxCell id="wxCxnNNvscAaYxMl4mgB-33" value="&lt;font style=&quot;font-size: 10px;&quot;&gt;teardwon&lt;/font&gt;" style="text;html=1;align=center;verticalAlign=middle;resizable=0;points=[];autosize=1;strokeColor=none;fillColor=none;" vertex="1" parent="wxCxnNNvscAaYxMl4mgB-26">
          <mxGeometry x="12.75" y="100" width="70" height="30" as="geometry" />
        </mxCell>
        <mxCell id="wxCxnNNvscAaYxMl4mgB-118" value="" style="endArrow=classic;html=1;rounded=0;curved=1;" edge="1" parent="wxCxnNNvscAaYxMl4mgB-26">
          <mxGeometry width="50" height="50" relative="1" as="geometry">
            <mxPoint x="77.5" y="50" as="sourcePoint" />
            <mxPoint x="117.5" y="50" as="targetPoint" />
          </mxGeometry>
        </mxCell>
        <mxCell id="wxCxnNNvscAaYxMl4mgB-116" value="" style="endArrow=classic;html=1;rounded=0;curved=1;" edge="1" parent="wxCxnNNvscAaYxMl4mgB-26">
          <mxGeometry width="50" height="50" relative="1" as="geometry">
            <mxPoint x="-78.1" y="50" as="sourcePoint" />
            <mxPoint x="-2.5" y="50" as="targetPoint" />
          </mxGeometry>
        </mxCell>
        <mxCell id="wxCxnNNvscAaYxMl4mgB-50" value="router" style="swimlane;whiteSpace=wrap;html=1;" vertex="1" parent="wxCxnNNvscAaYxMl4mgB-25">
          <mxGeometry x="152" y="25" width="95.5" height="150" as="geometry" />
        </mxCell>
        <mxCell id="wxCxnNNvscAaYxMl4mgB-51" value="" style="endArrow=none;html=1;rounded=0;" edge="1" parent="wxCxnNNvscAaYxMl4mgB-50">
          <mxGeometry width="50" height="50" relative="1" as="geometry">
            <mxPoint y="89.99999999999999" as="sourcePoint" />
            <mxPoint x="97.5" y="90" as="targetPoint" />
          </mxGeometry>
        </mxCell>
        <mxCell id="wxCxnNNvscAaYxMl4mgB-52" value="&lt;font style=&quot;font-size: 10px;&quot;&gt;setup&lt;/font&gt;" style="text;html=1;align=center;verticalAlign=middle;resizable=0;points=[];autosize=1;strokeColor=none;fillColor=none;" vertex="1" parent="wxCxnNNvscAaYxMl4mgB-50">
          <mxGeometry x="22.75" y="40" width="50" height="30" as="geometry" />
        </mxCell>
        <mxCell id="wxCxnNNvscAaYxMl4mgB-53" value="&lt;font style=&quot;font-size: 10px;&quot;&gt;teardwon&lt;/font&gt;" style="text;html=1;align=center;verticalAlign=middle;resizable=0;points=[];autosize=1;strokeColor=none;fillColor=none;" vertex="1" parent="wxCxnNNvscAaYxMl4mgB-50">
          <mxGeometry x="12.75" y="100" width="70" height="30" as="geometry" />
        </mxCell>
        <mxCell id="wxCxnNNvscAaYxMl4mgB-119" value="" style="endArrow=classic;html=1;rounded=0;curved=1;" edge="1" parent="wxCxnNNvscAaYxMl4mgB-50">
          <mxGeometry width="50" height="50" relative="1" as="geometry">
            <mxPoint x="90" y="50" as="sourcePoint" />
            <mxPoint x="120" y="50" as="targetPoint" />
          </mxGeometry>
        </mxCell>
        <mxCell id="wxCxnNNvscAaYxMl4mgB-54" value="service" style="swimlane;whiteSpace=wrap;html=1;" vertex="1" parent="wxCxnNNvscAaYxMl4mgB-25">
          <mxGeometry x="272" y="25" width="95.5" height="150" as="geometry" />
        </mxCell>
        <mxCell id="wxCxnNNvscAaYxMl4mgB-55" value="" style="endArrow=none;html=1;rounded=0;" edge="1" parent="wxCxnNNvscAaYxMl4mgB-54">
          <mxGeometry width="50" height="50" relative="1" as="geometry">
            <mxPoint y="89.99999999999999" as="sourcePoint" />
            <mxPoint x="97.5" y="90" as="targetPoint" />
          </mxGeometry>
        </mxCell>
        <mxCell id="wxCxnNNvscAaYxMl4mgB-56" value="&lt;font style=&quot;font-size: 10px;&quot;&gt;setup&lt;/font&gt;" style="text;html=1;align=center;verticalAlign=middle;resizable=0;points=[];autosize=1;strokeColor=none;fillColor=none;" vertex="1" parent="wxCxnNNvscAaYxMl4mgB-54">
          <mxGeometry x="22.75" y="40" width="50" height="30" as="geometry" />
        </mxCell>
        <mxCell id="wxCxnNNvscAaYxMl4mgB-57" value="&lt;font style=&quot;font-size: 10px;&quot;&gt;teardwon&lt;/font&gt;" style="text;html=1;align=center;verticalAlign=middle;resizable=0;points=[];autosize=1;strokeColor=none;fillColor=none;" vertex="1" parent="wxCxnNNvscAaYxMl4mgB-54">
          <mxGeometry x="12.75" y="100" width="70" height="30" as="geometry" />
        </mxCell>
        <mxCell id="wxCxnNNvscAaYxMl4mgB-120" value="" style="endArrow=classic;html=1;rounded=0;curved=1;entryX=0.05;entryY=0.633;entryDx=0;entryDy=0;entryPerimeter=0;" edge="1" parent="wxCxnNNvscAaYxMl4mgB-54" target="wxCxnNNvscAaYxMl4mgB-68">
          <mxGeometry width="50" height="50" relative="1" as="geometry">
            <mxPoint x="90" y="50" as="sourcePoint" />
            <mxPoint x="140" as="targetPoint" />
          </mxGeometry>
        </mxCell>
        <mxCell id="wxCxnNNvscAaYxMl4mgB-66" value="" style="endArrow=none;html=1;rounded=0;" edge="1" parent="wxCxnNNvscAaYxMl4mgB-25">
          <mxGeometry width="50" height="50" relative="1" as="geometry">
            <mxPoint x="432" y="195" as="sourcePoint" />
            <mxPoint x="432" as="targetPoint" />
          </mxGeometry>
        </mxCell>
        <mxCell id="wxCxnNNvscAaYxMl4mgB-67" value="" style="endArrow=none;html=1;rounded=0;" edge="1" parent="wxCxnNNvscAaYxMl4mgB-25">
          <mxGeometry width="50" height="50" relative="1" as="geometry">
            <mxPoint x="432" y="115" as="sourcePoint" />
            <mxPoint x="502" y="115" as="targetPoint" />
          </mxGeometry>
        </mxCell>
        <mxCell id="wxCxnNNvscAaYxMl4mgB-124" value="" style="endArrow=classic;html=1;rounded=0;curved=1;entryX=0;entryY=0.5;entryDx=0;entryDy=0;" edge="1" parent="wxCxnNNvscAaYxMl4mgB-25" target="wxCxnNNvscAaYxMl4mgB-121">
          <mxGeometry width="50" height="50" relative="1" as="geometry">
            <mxPoint x="492" y="75" as="sourcePoint" />
            <mxPoint x="542" y="25" as="targetPoint" />
          </mxGeometry>
        </mxCell>
        <mxCell id="wxCxnNNvscAaYxMl4mgB-70" value="notes" style="swimlane;horizontal=0;whiteSpace=wrap;html=1;" vertex="1" parent="wxCxnNNvscAaYxMl4mgB-1">
          <mxGeometry x="9" y="280" width="502" height="200" as="geometry" />
        </mxCell>
        <mxCell id="wxCxnNNvscAaYxMl4mgB-71" value="db" style="swimlane;whiteSpace=wrap;html=1;" vertex="1" parent="wxCxnNNvscAaYxMl4mgB-70">
          <mxGeometry x="34.5" y="25" width="95.5" height="150" as="geometry" />
        </mxCell>
        <mxCell id="wxCxnNNvscAaYxMl4mgB-72" value="" style="endArrow=none;html=1;rounded=0;" edge="1" parent="wxCxnNNvscAaYxMl4mgB-71">
          <mxGeometry width="50" height="50" relative="1" as="geometry">
            <mxPoint y="89.99999999999999" as="sourcePoint" />
            <mxPoint x="97.5" y="90" as="targetPoint" />
          </mxGeometry>
        </mxCell>
        <mxCell id="wxCxnNNvscAaYxMl4mgB-73" value="&lt;font style=&quot;font-size: 10px;&quot;&gt;setup&lt;/font&gt;" style="text;html=1;align=center;verticalAlign=middle;resizable=0;points=[];autosize=1;strokeColor=none;fillColor=none;" vertex="1" parent="wxCxnNNvscAaYxMl4mgB-71">
          <mxGeometry x="22.75" y="40" width="50" height="30" as="geometry" />
        </mxCell>
        <mxCell id="wxCxnNNvscAaYxMl4mgB-74" value="&lt;font style=&quot;font-size: 10px;&quot;&gt;teardwon&lt;/font&gt;" style="text;html=1;align=center;verticalAlign=middle;resizable=0;points=[];autosize=1;strokeColor=none;fillColor=none;" vertex="1" parent="wxCxnNNvscAaYxMl4mgB-71">
          <mxGeometry x="12.75" y="100" width="70" height="30" as="geometry" />
        </mxCell>
        <mxCell id="wxCxnNNvscAaYxMl4mgB-75" value="router" style="swimlane;whiteSpace=wrap;html=1;" vertex="1" parent="wxCxnNNvscAaYxMl4mgB-70">
          <mxGeometry x="152" y="25" width="95.5" height="150" as="geometry" />
        </mxCell>
        <mxCell id="wxCxnNNvscAaYxMl4mgB-76" value="" style="endArrow=none;html=1;rounded=0;" edge="1" parent="wxCxnNNvscAaYxMl4mgB-75">
          <mxGeometry width="50" height="50" relative="1" as="geometry">
            <mxPoint y="89.99999999999999" as="sourcePoint" />
            <mxPoint x="97.5" y="90" as="targetPoint" />
          </mxGeometry>
        </mxCell>
        <mxCell id="wxCxnNNvscAaYxMl4mgB-77" value="&lt;font style=&quot;font-size: 10px;&quot;&gt;setup&lt;/font&gt;" style="text;html=1;align=center;verticalAlign=middle;resizable=0;points=[];autosize=1;strokeColor=none;fillColor=none;" vertex="1" parent="wxCxnNNvscAaYxMl4mgB-75">
          <mxGeometry x="22.75" y="40" width="50" height="30" as="geometry" />
        </mxCell>
        <mxCell id="wxCxnNNvscAaYxMl4mgB-78" value="&lt;font style=&quot;font-size: 10px;&quot;&gt;teardwon&lt;/font&gt;" style="text;html=1;align=center;verticalAlign=middle;resizable=0;points=[];autosize=1;strokeColor=none;fillColor=none;" vertex="1" parent="wxCxnNNvscAaYxMl4mgB-75">
          <mxGeometry x="12.75" y="100" width="70" height="30" as="geometry" />
        </mxCell>
        <mxCell id="wxCxnNNvscAaYxMl4mgB-79" value="service" style="swimlane;whiteSpace=wrap;html=1;" vertex="1" parent="wxCxnNNvscAaYxMl4mgB-70">
          <mxGeometry x="272" y="25" width="95.5" height="150" as="geometry" />
        </mxCell>
        <mxCell id="wxCxnNNvscAaYxMl4mgB-80" value="" style="endArrow=none;html=1;rounded=0;" edge="1" parent="wxCxnNNvscAaYxMl4mgB-79">
          <mxGeometry width="50" height="50" relative="1" as="geometry">
            <mxPoint y="89.99999999999999" as="sourcePoint" />
            <mxPoint x="97.5" y="90" as="targetPoint" />
          </mxGeometry>
        </mxCell>
        <mxCell id="wxCxnNNvscAaYxMl4mgB-81" value="&lt;font style=&quot;font-size: 10px;&quot;&gt;setup&lt;/font&gt;" style="text;html=1;align=center;verticalAlign=middle;resizable=0;points=[];autosize=1;strokeColor=none;fillColor=none;" vertex="1" parent="wxCxnNNvscAaYxMl4mgB-79">
          <mxGeometry x="22.75" y="40" width="50" height="30" as="geometry" />
        </mxCell>
        <mxCell id="wxCxnNNvscAaYxMl4mgB-82" value="&lt;font style=&quot;font-size: 10px;&quot;&gt;teardwon&lt;/font&gt;" style="text;html=1;align=center;verticalAlign=middle;resizable=0;points=[];autosize=1;strokeColor=none;fillColor=none;" vertex="1" parent="wxCxnNNvscAaYxMl4mgB-79">
          <mxGeometry x="12.75" y="100" width="70" height="30" as="geometry" />
        </mxCell>
        <mxCell id="wxCxnNNvscAaYxMl4mgB-83" value="" style="endArrow=none;html=1;rounded=0;" edge="1" parent="wxCxnNNvscAaYxMl4mgB-70">
          <mxGeometry width="50" height="50" relative="1" as="geometry">
            <mxPoint x="432" y="195" as="sourcePoint" />
            <mxPoint x="432" as="targetPoint" />
          </mxGeometry>
        </mxCell>
        <mxCell id="wxCxnNNvscAaYxMl4mgB-84" value="" style="endArrow=none;html=1;rounded=0;" edge="1" parent="wxCxnNNvscAaYxMl4mgB-70">
          <mxGeometry width="50" height="50" relative="1" as="geometry">
            <mxPoint x="432" y="115" as="sourcePoint" />
            <mxPoint x="502" y="115" as="targetPoint" />
          </mxGeometry>
        </mxCell>
        <mxCell id="wxCxnNNvscAaYxMl4mgB-85" value="setup" style="text;html=1;align=center;verticalAlign=middle;resizable=0;points=[];autosize=1;strokeColor=none;fillColor=none;" vertex="1" parent="wxCxnNNvscAaYxMl4mgB-1">
          <mxGeometry x="446" y="333" width="50" height="30" as="geometry" />
        </mxCell>
        <mxCell id="wxCxnNNvscAaYxMl4mgB-86" value="teardown" style="text;html=1;align=center;verticalAlign=middle;resizable=0;points=[];autosize=1;strokeColor=none;fillColor=none;" vertex="1" parent="wxCxnNNvscAaYxMl4mgB-1">
          <mxGeometry x="436" y="423" width="70" height="30" as="geometry" />
        </mxCell>
        <mxCell id="wxCxnNNvscAaYxMl4mgB-129" value="" style="endArrow=classic;html=1;rounded=0;curved=1;entryX=1;entryY=0.5;entryDx=0;entryDy=0;" edge="1" parent="wxCxnNNvscAaYxMl4mgB-1">
          <mxGeometry width="50" height="50" relative="1" as="geometry">
            <mxPoint x="565" y="260" as="sourcePoint" />
            <mxPoint x="-35" y="264" as="targetPoint" />
          </mxGeometry>
        </mxCell>
        <mxCell id="wxCxnNNvscAaYxMl4mgB-68" value="setup" style="text;html=1;align=center;verticalAlign=middle;resizable=0;points=[];autosize=1;strokeColor=none;fillColor=none;" vertex="1" parent="WIyWlLk6GJQsqaUBKTNV-1">
          <mxGeometry x="778" y="598" width="50" height="30" as="geometry" />
        </mxCell>
        <mxCell id="wxCxnNNvscAaYxMl4mgB-69" value="teardown" style="text;html=1;align=center;verticalAlign=middle;resizable=0;points=[];autosize=1;strokeColor=none;fillColor=none;" vertex="1" parent="WIyWlLk6GJQsqaUBKTNV-1">
          <mxGeometry x="768" y="688" width="70" height="30" as="geometry" />
        </mxCell>
        <mxCell id="wxCxnNNvscAaYxMl4mgB-89" value="external hooks" style="swimlane;whiteSpace=wrap;html=1;" vertex="1" parent="WIyWlLk6GJQsqaUBKTNV-1">
          <mxGeometry x="153" y="215" width="135" height="150" as="geometry" />
        </mxCell>
        <mxCell id="wxCxnNNvscAaYxMl4mgB-90" value="" style="endArrow=none;html=1;rounded=0;" edge="1" parent="wxCxnNNvscAaYxMl4mgB-89">
          <mxGeometry width="50" height="50" relative="1" as="geometry">
            <mxPoint y="60" as="sourcePoint" />
            <mxPoint x="130" y="60" as="targetPoint" />
          </mxGeometry>
        </mxCell>
        <mxCell id="wxCxnNNvscAaYxMl4mgB-91" value="" style="endArrow=none;html=1;rounded=0;" edge="1" parent="wxCxnNNvscAaYxMl4mgB-89">
          <mxGeometry width="50" height="50" relative="1" as="geometry">
            <mxPoint y="89.99999999999999" as="sourcePoint" />
            <mxPoint x="130" y="90" as="targetPoint" />
          </mxGeometry>
        </mxCell>
        <mxCell id="wxCxnNNvscAaYxMl4mgB-92" value="" style="endArrow=none;html=1;rounded=0;" edge="1" parent="wxCxnNNvscAaYxMl4mgB-89">
          <mxGeometry width="50" height="50" relative="1" as="geometry">
            <mxPoint y="120" as="sourcePoint" />
            <mxPoint x="130" y="120" as="targetPoint" />
          </mxGeometry>
        </mxCell>
        <mxCell id="wxCxnNNvscAaYxMl4mgB-93" value="&lt;font style=&quot;font-size: 10px;&quot;&gt;post_endpoint_setup&lt;/font&gt;" style="text;html=1;align=center;verticalAlign=middle;resizable=0;points=[];autosize=1;strokeColor=none;fillColor=none;" vertex="1" parent="wxCxnNNvscAaYxMl4mgB-89">
          <mxGeometry y="60" width="120" height="30" as="geometry" />
        </mxCell>
        <mxCell id="wxCxnNNvscAaYxMl4mgB-94" value="&lt;font style=&quot;font-size: 10px;&quot;&gt;pre_endpoint_setup&lt;/font&gt;" style="text;html=1;align=center;verticalAlign=middle;resizable=0;points=[];autosize=1;strokeColor=none;fillColor=none;" vertex="1" parent="wxCxnNNvscAaYxMl4mgB-89">
          <mxGeometry y="30" width="120" height="30" as="geometry" />
        </mxCell>
        <mxCell id="wxCxnNNvscAaYxMl4mgB-95" value="&lt;font style=&quot;font-size: 10px;&quot;&gt;post_endpoint_teardwon&lt;/font&gt;" style="text;html=1;align=center;verticalAlign=middle;resizable=0;points=[];autosize=1;strokeColor=none;fillColor=none;" vertex="1" parent="wxCxnNNvscAaYxMl4mgB-89">
          <mxGeometry x="-2.5" y="120" width="140" height="30" as="geometry" />
        </mxCell>
        <mxCell id="wxCxnNNvscAaYxMl4mgB-96" value="&lt;font style=&quot;font-size: 10px;&quot;&gt;pre_endpoint_teardwon&lt;/font&gt;" style="text;html=1;align=center;verticalAlign=middle;resizable=0;points=[];autosize=1;strokeColor=none;fillColor=none;" vertex="1" parent="wxCxnNNvscAaYxMl4mgB-89">
          <mxGeometry x="-5" y="90" width="140" height="30" as="geometry" />
        </mxCell>
        <mxCell id="wxCxnNNvscAaYxMl4mgB-98" value="" style="endArrow=classic;html=1;rounded=0;entryX=0.014;entryY=0.511;entryDx=0;entryDy=0;entryPerimeter=0;" edge="1" parent="wxCxnNNvscAaYxMl4mgB-89" target="wxCxnNNvscAaYxMl4mgB-13">
          <mxGeometry width="50" height="50" relative="1" as="geometry">
            <mxPoint x="120" y="45" as="sourcePoint" />
            <mxPoint x="170" y="-5" as="targetPoint" />
          </mxGeometry>
        </mxCell>
        <mxCell id="wxCxnNNvscAaYxMl4mgB-155" value="Text" style="edgeLabel;html=1;align=center;verticalAlign=middle;resizable=0;points=[];" vertex="1" connectable="0" parent="wxCxnNNvscAaYxMl4mgB-98">
          <mxGeometry x="-0.1467" y="1" relative="1" as="geometry">
            <mxPoint as="offset" />
          </mxGeometry>
        </mxCell>
        <mxCell id="wxCxnNNvscAaYxMl4mgB-161" value="goto" style="edgeLabel;html=1;align=center;verticalAlign=middle;resizable=0;points=[];" vertex="1" connectable="0" parent="wxCxnNNvscAaYxMl4mgB-98">
          <mxGeometry x="-0.1304" y="1" relative="1" as="geometry">
            <mxPoint as="offset" />
          </mxGeometry>
        </mxCell>
        <mxCell id="wxCxnNNvscAaYxMl4mgB-103" value="startup begin" style="rounded=1;whiteSpace=wrap;html=1;" vertex="1" parent="WIyWlLk6GJQsqaUBKTNV-1">
          <mxGeometry x="43" y="110" width="100" height="60" as="geometry" />
        </mxCell>
        <mxCell id="wxCxnNNvscAaYxMl4mgB-107" value="null" style="ellipse;whiteSpace=wrap;html=1;aspect=fixed;" vertex="1" parent="WIyWlLk6GJQsqaUBKTNV-1">
          <mxGeometry x="903" y="240" width="40" height="40" as="geometry" />
        </mxCell>
        <mxCell id="wxCxnNNvscAaYxMl4mgB-110" value="null" style="ellipse;whiteSpace=wrap;html=1;aspect=fixed;" vertex="1" parent="WIyWlLk6GJQsqaUBKTNV-1">
          <mxGeometry x="903" y="410" width="40" height="40" as="geometry" />
        </mxCell>
        <mxCell id="wxCxnNNvscAaYxMl4mgB-111" value="" style="endArrow=classic;html=1;rounded=0;curved=1;entryX=0.5;entryY=-0.117;entryDx=0;entryDy=0;entryPerimeter=0;" edge="1" parent="WIyWlLk6GJQsqaUBKTNV-1" target="wxCxnNNvscAaYxMl4mgB-110">
          <mxGeometry width="50" height="50" relative="1" as="geometry">
            <mxPoint x="923" y="280" as="sourcePoint" />
            <mxPoint x="973" y="230" as="targetPoint" />
          </mxGeometry>
        </mxCell>
        <mxCell id="wxCxnNNvscAaYxMl4mgB-112" value="null" style="ellipse;whiteSpace=wrap;html=1;aspect=fixed;" vertex="1" parent="WIyWlLk6GJQsqaUBKTNV-1">
          <mxGeometry x="263" y="414" width="40" height="40" as="geometry" />
        </mxCell>
        <mxCell id="wxCxnNNvscAaYxMl4mgB-113" value="" style="endArrow=classic;html=1;rounded=0;curved=1;entryX=1;entryY=0.5;entryDx=0;entryDy=0;" edge="1" parent="WIyWlLk6GJQsqaUBKTNV-1" target="wxCxnNNvscAaYxMl4mgB-112">
          <mxGeometry width="50" height="50" relative="1" as="geometry">
            <mxPoint x="903" y="430" as="sourcePoint" />
            <mxPoint x="953" y="380" as="targetPoint" />
          </mxGeometry>
        </mxCell>
        <mxCell id="wxCxnNNvscAaYxMl4mgB-114" value="null" style="ellipse;whiteSpace=wrap;html=1;aspect=fixed;" vertex="1" parent="WIyWlLk6GJQsqaUBKTNV-1">
          <mxGeometry x="263" y="598" width="40" height="40" as="geometry" />
        </mxCell>
        <mxCell id="wxCxnNNvscAaYxMl4mgB-115" value="" style="endArrow=classic;html=1;rounded=0;curved=1;entryX=0.5;entryY=0;entryDx=0;entryDy=0;" edge="1" parent="WIyWlLk6GJQsqaUBKTNV-1" target="wxCxnNNvscAaYxMl4mgB-114">
          <mxGeometry width="50" height="50" relative="1" as="geometry">
            <mxPoint x="283" y="460" as="sourcePoint" />
            <mxPoint x="333" y="410" as="targetPoint" />
          </mxGeometry>
        </mxCell>
        <mxCell id="wxCxnNNvscAaYxMl4mgB-121" value="null" style="ellipse;whiteSpace=wrap;html=1;aspect=fixed;" vertex="1" parent="WIyWlLk6GJQsqaUBKTNV-1">
          <mxGeometry x="893" y="598" width="40" height="40" as="geometry" />
        </mxCell>
        <mxCell id="wxCxnNNvscAaYxMl4mgB-122" value="null" style="ellipse;whiteSpace=wrap;html=1;aspect=fixed;" vertex="1" parent="WIyWlLk6GJQsqaUBKTNV-1">
          <mxGeometry x="893" y="744" width="42" height="42" as="geometry" />
        </mxCell>
        <mxCell id="wxCxnNNvscAaYxMl4mgB-123" value="" style="endArrow=classic;html=1;rounded=0;curved=1;entryX=0.5;entryY=-0.117;entryDx=0;entryDy=0;entryPerimeter=0;" edge="1" parent="WIyWlLk6GJQsqaUBKTNV-1" target="wxCxnNNvscAaYxMl4mgB-122">
          <mxGeometry width="50" height="50" relative="1" as="geometry">
            <mxPoint x="913" y="638" as="sourcePoint" />
            <mxPoint x="963" y="588" as="targetPoint" />
          </mxGeometry>
        </mxCell>
        <mxCell id="wxCxnNNvscAaYxMl4mgB-125" value="null" style="ellipse;whiteSpace=wrap;html=1;aspect=fixed;" vertex="1" parent="WIyWlLk6GJQsqaUBKTNV-1">
          <mxGeometry x="260" y="744" width="40" height="40" as="geometry" />
        </mxCell>
        <mxCell id="wxCxnNNvscAaYxMl4mgB-126" value="null" style="ellipse;whiteSpace=wrap;html=1;aspect=fixed;" vertex="1" parent="WIyWlLk6GJQsqaUBKTNV-1">
          <mxGeometry x="260" y="836" width="42" height="42" as="geometry" />
        </mxCell>
        <mxCell id="wxCxnNNvscAaYxMl4mgB-127" value="" style="endArrow=classic;html=1;rounded=0;curved=1;entryX=0.5;entryY=0;entryDx=0;entryDy=0;" edge="1" parent="WIyWlLk6GJQsqaUBKTNV-1" target="wxCxnNNvscAaYxMl4mgB-126">
          <mxGeometry width="50" height="50" relative="1" as="geometry">
            <mxPoint x="280" y="786" as="sourcePoint" />
            <mxPoint x="328" y="670" as="targetPoint" />
          </mxGeometry>
        </mxCell>
        <mxCell id="wxCxnNNvscAaYxMl4mgB-130" value="" style="endArrow=classic;html=1;rounded=0;curved=1;" edge="1" parent="WIyWlLk6GJQsqaUBKTNV-1">
          <mxGeometry width="50" height="50" relative="1" as="geometry">
            <mxPoint x="300" y="856.58" as="sourcePoint" />
            <mxPoint x="375.6" y="856.58" as="targetPoint" />
          </mxGeometry>
        </mxCell>
        <mxCell id="wxCxnNNvscAaYxMl4mgB-132" value="" style="endArrow=classic;html=1;rounded=0;curved=1;" edge="1" parent="WIyWlLk6GJQsqaUBKTNV-1">
          <mxGeometry width="50" height="50" relative="1" as="geometry">
            <mxPoint x="455" y="859" as="sourcePoint" />
            <mxPoint x="495" y="859" as="targetPoint" />
          </mxGeometry>
        </mxCell>
        <mxCell id="wxCxnNNvscAaYxMl4mgB-133" value="" style="endArrow=classic;html=1;rounded=0;curved=1;" edge="1" parent="WIyWlLk6GJQsqaUBKTNV-1">
          <mxGeometry width="50" height="50" relative="1" as="geometry">
            <mxPoint x="585" y="857" as="sourcePoint" />
            <mxPoint x="615" y="857" as="targetPoint" />
          </mxGeometry>
        </mxCell>
        <mxCell id="wxCxnNNvscAaYxMl4mgB-135" value="" style="endArrow=classic;html=1;rounded=0;curved=1;entryX=0.05;entryY=0.633;entryDx=0;entryDy=0;entryPerimeter=0;" edge="1" parent="WIyWlLk6GJQsqaUBKTNV-1">
          <mxGeometry width="50" height="50" relative="1" as="geometry">
            <mxPoint x="698" y="861" as="sourcePoint" />
            <mxPoint x="776" y="858" as="targetPoint" />
          </mxGeometry>
        </mxCell>
        <mxCell id="wxCxnNNvscAaYxMl4mgB-141" value="null" style="ellipse;whiteSpace=wrap;html=1;aspect=fixed;" vertex="1" parent="WIyWlLk6GJQsqaUBKTNV-1">
          <mxGeometry x="895" y="838" width="40" height="40" as="geometry" />
        </mxCell>
        <mxCell id="wxCxnNNvscAaYxMl4mgB-142" value="null" style="ellipse;whiteSpace=wrap;html=1;aspect=fixed;" vertex="1" parent="WIyWlLk6GJQsqaUBKTNV-1">
          <mxGeometry x="892" y="1075" width="42" height="42" as="geometry" />
        </mxCell>
        <mxCell id="wxCxnNNvscAaYxMl4mgB-143" value="" style="endArrow=classic;html=1;rounded=0;curved=1;entryX=0.5;entryY=-0.117;entryDx=0;entryDy=0;entryPerimeter=0;" edge="1" parent="WIyWlLk6GJQsqaUBKTNV-1" target="wxCxnNNvscAaYxMl4mgB-142">
          <mxGeometry width="50" height="50" relative="1" as="geometry">
            <mxPoint x="915" y="878" as="sourcePoint" />
            <mxPoint x="965" y="828" as="targetPoint" />
          </mxGeometry>
        </mxCell>
        <mxCell id="wxCxnNNvscAaYxMl4mgB-144" value="" style="endArrow=classic;html=1;rounded=0;curved=1;entryX=1;entryY=0.5;entryDx=0;entryDy=0;exitX=0;exitY=0.5;exitDx=0;exitDy=0;" edge="1" parent="WIyWlLk6GJQsqaUBKTNV-1" source="wxCxnNNvscAaYxMl4mgB-142" target="wxCxnNNvscAaYxMl4mgB-146">
          <mxGeometry width="50" height="50" relative="1" as="geometry">
            <mxPoint x="908" y="1091" as="sourcePoint" />
            <mxPoint x="308" y="1095" as="targetPoint" />
          </mxGeometry>
        </mxCell>
        <mxCell id="wxCxnNNvscAaYxMl4mgB-146" value="null" style="ellipse;whiteSpace=wrap;html=1;aspect=fixed;" vertex="1" parent="WIyWlLk6GJQsqaUBKTNV-1">
          <mxGeometry x="103" y="1077" width="40" height="40" as="geometry" />
        </mxCell>
        <mxCell id="wxCxnNNvscAaYxMl4mgB-147" value="" style="endArrow=classic;html=1;rounded=0;curved=1;entryX=0;entryY=0.5;entryDx=0;entryDy=0;" edge="1" parent="WIyWlLk6GJQsqaUBKTNV-1">
          <mxGeometry width="50" height="50" relative="1" as="geometry">
            <mxPoint x="833" y="858" as="sourcePoint" />
            <mxPoint x="893" y="856" as="targetPoint" />
          </mxGeometry>
        </mxCell>
        <mxCell id="wxCxnNNvscAaYxMl4mgB-149" value="" style="endArrow=classic;html=1;rounded=0;curved=1;entryX=-0.021;entryY=0.261;entryDx=0;entryDy=0;entryPerimeter=0;exitX=0.5;exitY=1;exitDx=0;exitDy=0;" edge="1" parent="WIyWlLk6GJQsqaUBKTNV-1" source="wxCxnNNvscAaYxMl4mgB-103" target="wxCxnNNvscAaYxMl4mgB-94">
          <mxGeometry width="50" height="50" relative="1" as="geometry">
            <mxPoint x="143" y="160" as="sourcePoint" />
            <mxPoint x="193" y="110" as="targetPoint" />
          </mxGeometry>
        </mxCell>
        <mxCell id="wxCxnNNvscAaYxMl4mgB-168" value="Text" style="edgeLabel;html=1;align=center;verticalAlign=middle;resizable=0;points=[];" vertex="1" connectable="0" parent="wxCxnNNvscAaYxMl4mgB-149">
          <mxGeometry x="-0.7797" y="-1" relative="1" as="geometry">
            <mxPoint as="offset" />
          </mxGeometry>
        </mxCell>
        <mxCell id="wxCxnNNvscAaYxMl4mgB-150" value="null" style="ellipse;whiteSpace=wrap;html=1;aspect=fixed;" vertex="1" parent="WIyWlLk6GJQsqaUBKTNV-1">
          <mxGeometry x="103" y="340" width="40" height="40" as="geometry" />
        </mxCell>
        <mxCell id="wxCxnNNvscAaYxMl4mgB-152" value="" style="endArrow=classic;html=1;rounded=0;curved=1;entryX=0.5;entryY=1;entryDx=0;entryDy=0;" edge="1" parent="WIyWlLk6GJQsqaUBKTNV-1" target="wxCxnNNvscAaYxMl4mgB-150">
          <mxGeometry width="50" height="50" relative="1" as="geometry">
            <mxPoint x="123" y="1080" as="sourcePoint" />
            <mxPoint x="173" y="1030" as="targetPoint" />
          </mxGeometry>
        </mxCell>
        <mxCell id="wxCxnNNvscAaYxMl4mgB-153" value="" style="endArrow=classic;html=1;rounded=0;curved=1;entryX=0.007;entryY=0.622;entryDx=0;entryDy=0;entryPerimeter=0;" edge="1" parent="WIyWlLk6GJQsqaUBKTNV-1" target="wxCxnNNvscAaYxMl4mgB-93">
          <mxGeometry width="50" height="50" relative="1" as="geometry">
            <mxPoint x="123" y="340" as="sourcePoint" />
            <mxPoint x="173" y="290" as="targetPoint" />
          </mxGeometry>
        </mxCell>
        <mxCell id="wxCxnNNvscAaYxMl4mgB-158" value="" style="endArrow=classic;html=1;rounded=0;entryX=0.014;entryY=0.511;entryDx=0;entryDy=0;entryPerimeter=0;" edge="1" parent="WIyWlLk6GJQsqaUBKTNV-1">
          <mxGeometry width="50" height="50" relative="1" as="geometry">
            <mxPoint x="273" y="292.5" as="sourcePoint" />
            <mxPoint x="375" y="287.5" as="targetPoint" />
          </mxGeometry>
        </mxCell>
        <mxCell id="wxCxnNNvscAaYxMl4mgB-159" value="Text" style="edgeLabel;html=1;align=center;verticalAlign=middle;resizable=0;points=[];" vertex="1" connectable="0" parent="wxCxnNNvscAaYxMl4mgB-158">
          <mxGeometry x="-0.1467" y="1" relative="1" as="geometry">
            <mxPoint as="offset" />
          </mxGeometry>
        </mxCell>
        <mxCell id="wxCxnNNvscAaYxMl4mgB-162" value="goto" style="edgeLabel;html=1;align=center;verticalAlign=middle;resizable=0;points=[];" vertex="1" connectable="0" parent="wxCxnNNvscAaYxMl4mgB-158">
          <mxGeometry x="-0.1348" y="-1" relative="1" as="geometry">
            <mxPoint as="offset" />
          </mxGeometry>
        </mxCell>
        <mxCell id="wxCxnNNvscAaYxMl4mgB-165" value="startup end" style="rounded=1;whiteSpace=wrap;html=1;" vertex="1" parent="WIyWlLk6GJQsqaUBKTNV-1">
          <mxGeometry x="993" y="260" width="100" height="60" as="geometry" />
        </mxCell>
      </root>
    </mxGraphModel>
  </diagram>
</mxfile>
